<?xml version="1.0" encoding="iso-8859-1"?>
<!-- Uploaded to: SVG Repo, www.svgrepo.com, Generator: SVG Repo Mixer Tools -->
<svg version="1.1" id="Layer_1" xmlns="http://www.w3.org/2000/svg" xmlns:xlink="http://www.w3.org/1999/xlink" 
	 viewBox="0 0 512 512" xml:space="preserve">
<path style="fill:#37AD36;" d="M415.556,204.078c-32.008,32.008-73.149,49.308-115.034,51.922
	c2.615-41.885,19.915-83.026,51.922-115.034c32.008-32.008,73.149-49.308,115.034-51.922
	C464.864,130.928,447.564,172.07,415.556,204.078z"/>
<path style="fill:#9BB335;" d="M96.444,371.034c32.008,32.008,73.149,49.308,115.034,51.922
	c-2.615-41.885-19.915-83.026-51.922-115.034S86.407,258.615,44.522,256C47.136,297.885,64.436,339.026,96.444,371.034z"/>
<g>
	<polygon style="fill:#37AD36;" points="256,512 300.522,512 300.522,347.826 233.739,325.565 	"/>
	<polygon style="fill:#37AD36;" points="256,0 233.739,186.435 300.522,164.174 300.522,0 	"/>
</g>
<polygon style="fill:#9BB335;" points="300.522,164.174 256,164.174 256,0 211.478,0 211.478,164.174 233.739,256 211.478,347.826 
	211.478,512 256,512 256,347.826 300.522,347.826 "/>
<rect x="211.478" y="164.174" style="fill:#FFB833;" width="44.522" height="183.652"/>
</svg>