<?xml version="1.0" encoding="UTF-8"?>
<svg class="ONBJEQtK++jnfUWJ3V90Dw==" viewBox="0 0 24 24" xmlns="http://www.w3.org/2000/svg">
<g fill="currentColor" fill-rule="evenodd">
<path d="M6 4.5h12A1.5 1.5 0 0 1 19.5 6v2.5h-15V6A1.5 1.5 0 0 1 6 4.5z" fill-rule="nonzero" opacity=".1"/>
<path d="M6 4h12a2 2 0 0 1 2 2v12a2 2 0 0 1-2 2H6a2 2 0 0 1-2-2V6a2 2 0 0 1 2-2zm0 1a1 1 0 0 0-1 1v12a1 1 0 0 0 1 1h12a1 1 0 0 0 1-1V6a1 1 0 0 0-1-1H6zm1 3h10a.5.5 0 1 1 0 1H7a.5.5 0 0 1 0-1z" fill-rule="nonzero"/>
<text transform="translate(4 2)" font-family="-apple-system, system-ui, 'Segoe UI', Roboto, Helvetica, Arial, sans-serif, 'Apple Color Emoji', 'Segoe UI Emoji', 'Segoe UI Symbol'" font-size="9" font-weight="500"><tspan x="8" y="15" text-anchor="middle">12</tspan></text>
</g>
</svg>
