<?xml version="1.0" encoding="UTF-8"?>
<svg class="yeJ7DFSh0CB61w0UHm64kQ==" viewBox="0 0 24 24" xmlns="http://www.w3.org/2000/svg">
<path d="M13 6.5A1.5 1.5 0 0114.5 5h3A1.5 1.5 0 0119 6.5v3a1.5 1.5 0 01-1.5 1.5h-3A1.5 1.5 0 0113 9.5v-3zM6.5 13A1.5 1.5 0 005 14.5v3A1.5 1.5 0 006.5 19h3a1.5 1.5 0 001.5-1.5v-3A1.5 1.5 0 009.5 13h-3zm8 0a1.5 1.5 0 00-1.5 1.5v3a1.5 1.5 0 001.5 1.5h3a1.5 1.5 0 001.5-1.5v-3a1.5 1.5 0 00-1.5-1.5h-3zm-8-8A1.5 1.5 0 005 6.5v3A1.5 1.5 0 006.5 11h3A1.5 1.5 0 0011 9.5v-3A1.5 1.5 0 009.5 5h-3z" clip-rule="evenodd" fill="currentColor" fill-rule="evenodd" opacity=".1"/>
<path d="M17.5 6h-3a.5.5 0 00-.5.5v3a.5.5 0 00.5.5h3a.5.5 0 00.5-.5v-3a.5.5 0 00-.5-.5zm-3-1A1.5 1.5 0 0013 6.5v3a1.5 1.5 0 001.5 1.5h3A1.5 1.5 0 0019 9.5v-3A1.5 1.5 0 0017.5 5h-3zm-8 9h3a.5.5 0 01.5.5v3a.5.5 0 01-.5.5h-3a.5.5 0 01-.5-.5v-3a.5.5 0 01.5-.5zm-1.5.5A1.5 1.5 0 016.5 13h3a1.5 1.5 0 011.5 1.5v3A1.5 1.5 0 019.5 19h-3A1.5 1.5 0 015 17.5v-3zm9.5-.5h3a.5.5 0 01.5.5v3a.5.5 0 01-.5.5h-3a.5.5 0 01-.5-.5v-3a.5.5 0 01.5-.5zm-1.5.5a1.5 1.5 0 011.5-1.5h3a1.5 1.5 0 011.5 1.5v3a1.5 1.5 0 01-1.5 1.5h-3a1.5 1.5 0 01-1.5-1.5v-3zM6.5 6h3a.5.5 0 01.5.5v3a.5.5 0 01-.5.5h-3a.5.5 0 01-.5-.5v-3a.5.5 0 01.5-.5zM5 6.5A1.5 1.5 0 016.5 5h3A1.5 1.5 0 0111 6.5v3A1.5 1.5 0 019.5 11h-3A1.5 1.5 0 015 9.5v-3z" clip-rule="evenodd" fill="currentColor" fill-rule="evenodd"/>
</svg>
