<?xml version="1.0" encoding="iso-8859-1"?>
<!-- Uploaded to: SVG Repo, www.svgrepo.com, Generator: SVG Repo Mixer Tools -->
<svg version="1.1" id="Layer_1" xmlns="http://www.w3.org/2000/svg" xmlns:xlink="http://www.w3.org/1999/xlink" 
	 viewBox="0 0 512 512" xml:space="preserve">
<rect x="223.61" y="7.837" style="fill:#A9CF54;" width="64.784" height="496.327"/>
<rect x="223.61" y="7.837" style="fill:#92B83D;" width="18.808" height="496.327"/>
<polygon style="fill:#A9CF54;" points="195.857,287.347 195.857,504.163 131.073,504.163 131.073,358.39 149.882,337.763 
	153.257,334.064 "/>
<polygon style="fill:#92B83D;" points="149.882,337.763 149.882,504.163 131.073,504.163 131.073,358.39 "/>
<path style="fill:#A9CF54;" d="M462.076,287.347c0,0-53.687,126.119-129.432,100.467
	C332.645,387.814,332.645,317.168,462.076,287.347z"/>
<path style="fill:#92B83D;" d="M335.593,373.329c-2.945,8.809-2.949,14.484-2.949,14.484
	c51.205,17.342,92.324-34.673,113.596-70.199C419.72,345.723,380.414,375.945,335.593,373.329z"/>
<path style="fill:#A9CF54;" d="M179.358,170.674C103.613,196.315,49.927,70.196,49.927,70.196
	C179.358,100.028,179.358,170.674,179.358,170.674z"/>
<path style="fill:#92B83D;" d="M67.8,74.799c-5.668-1.621-11.615-3.161-17.873-4.603c0,0,45.635,107.202,112.117,103.84
	C111.085,162.827,75.252,90.919,67.8,74.799z"/>
<path d="M80.141,134.979c25.094,31.051,51.996,46.956,78.913,46.956c5.832,0,11.667-0.754,17.482-2.256l39.236,30.099v294.385
	c0,4.328,3.508,7.837,7.837,7.837h64.784c4.329,0,7.837-3.509,7.837-7.837v-77.237l39.236-30.099
	c5.816,1.502,11.649,2.255,17.482,2.255c26.917,0,53.822-15.906,78.913-46.956c23.311-28.843,36.861-60.383,37.426-61.711
	c1.155-2.713,0.69-5.843-1.203-8.102c-1.893-2.259-4.892-3.265-7.767-2.604c-21.911,5.049-41.643,11.61-58.65,19.503
	c-3.926,1.822-5.632,6.482-3.81,10.407c1.822,3.926,6.482,5.632,10.407,3.81c11.748-5.452,24.935-10.244,39.356-14.306
	c-14.554,27.635-49.808,84.169-94.625,84.253l65.137-49.968c3.434-2.634,4.081-7.554,1.448-10.988
	c-2.634-3.434-7.554-4.085-10.989-1.448l-63.119,48.421c4.745-10.541,13.993-24.311,32.044-37.868
	c3.462-2.6,4.159-7.512,1.56-10.972c-2.599-3.462-7.513-4.159-10.972-1.56c-36.567,27.464-42.259,57.137-43.142,66.134
	l-28.732,22.045V196.963c0-4.328-3.508-7.837-7.837-7.837c-4.329,0-7.837,3.509-7.837,7.837v51.2h-49.11V140.442h49.11v21.92
	c0,4.328,3.508,7.837,7.837,7.837c4.329,0,7.837-3.509,7.837-7.837V7.837c0-4.328-3.508-7.837-7.837-7.837H223.61
	c-4.329,0-7.837,3.509-7.837,7.837v182.186l-28.742-22.048c-0.623-6.25-3.578-22.549-17.598-41.083
	c-22.612-29.892-62.228-51.536-117.749-64.329c-2.872-0.66-5.872,0.345-7.767,2.604c-1.893,2.26-2.358,5.391-1.203,8.102
	C43.28,74.596,56.831,106.136,80.141,134.979z M231.446,496.327V387.232h49.11v109.095H231.446z M280.556,263.837v107.722h-49.11
	V263.837H280.556z M280.556,15.673v109.095h-49.11V15.673H280.556z M156.128,135.297c4.721,6.063,7.991,11.808,10.262,16.843
	l-62.981-48.314c-3.438-2.635-8.354-1.986-10.989,1.448c-2.634,3.435-1.985,8.354,1.448,10.988l65.13,49.963
	C114.25,166.1,78.974,109.61,64.4,81.985C117.087,96.851,143.277,118.795,156.128,135.297z"/>
<path d="M247.294,88.642c4.329,0,7.837-3.509,7.837-7.837V39.2c0-4.328-3.508-7.837-7.837-7.837c-4.329,0-7.837,3.509-7.837,7.837
	v41.606C239.458,85.134,242.965,88.642,247.294,88.642z"/>
<path d="M239.458,162.361v41.606c0,4.328,3.508,7.837,7.837,7.837c4.329,0,7.837-3.509,7.837-7.837v-41.606
	c0-4.328-3.508-7.837-7.837-7.837C242.965,154.525,239.458,158.033,239.458,162.361z"/>
<path d="M247.294,334.965c4.329,0,7.837-3.509,7.837-7.837v-41.606c0-4.328-3.508-7.837-7.837-7.837
	c-4.329,0-7.837,3.509-7.837,7.837v41.606C239.458,331.456,242.965,334.965,247.294,334.965z"/>
<path d="M247.294,400.848c-4.329,0-7.837,3.509-7.837,7.837v41.606c0,4.328,3.508,7.837,7.837,7.837
	c4.329,0,7.837-3.509,7.837-7.837v-41.606C255.131,404.357,251.623,400.848,247.294,400.848z"/>
<path d="M153.253,486.339c4.329,0,7.837-3.509,7.837-7.837v-41.606c0-4.328-3.508-7.837-7.837-7.837
	c-4.329,0-7.837,3.509-7.837,7.837v41.606C145.417,482.831,148.924,486.339,153.253,486.339z"/>
<path d="M153.253,387.232c4.329,0,7.837-3.509,7.837-7.837V337.1l2.352-2.579c2.916-3.198,2.687-8.154-0.51-11.071
	c-3.198-2.916-8.152-2.689-11.072,0.51l-26.579,29.145c-1.317,1.443-2.046,3.327-2.046,5.281v145.777
	c0,4.328,3.508,7.837,7.837,7.837h64.784c4.329,0,7.837-3.509,7.837-7.837V287.347c0-3.235-1.988-6.139-5.005-7.307
	c-3.021-1.17-6.442-0.365-8.622,2.026l-14.654,16.068c-2.916,3.198-2.687,8.154,0.51,11.071c3.196,2.916,8.153,2.69,11.072-0.51
	l1.026-1.126V409.6h-49.11v-48.178l6.508-7.136v25.108C145.417,383.723,148.924,387.232,153.253,387.232z M188.019,425.273v71.053
	h-49.11v-71.053H188.019z"/>
</svg>