<?xml version="1.0" encoding="UTF-8"?>
<svg class="dzOJIBuASPuCiFETMKkM4Q==" fill="none" viewBox="0 0 24 24" xmlns="http://www.w3.org/2000/svg">
<path d="M21 10.5a7.474 7.474 0 01-.637 3.03 8.5 8.5 0 00-9.893-9.893A7.5 7.5 0 0121 10.5zM10.5 5a8.55 8.55 0 00-1.53.137 7.5 7.5 0 019.893 9.893A8.5 8.5 0 0010.5 5zm7.5 8.5a7.5 7.5 0 11-15 0 7.5 7.5 0 0115 0zM10.5 20a6.5 6.5 0 110-13 6.5 6.5 0 010 13zm-3.604-6.604a.5.5 0 01.708 0l1.646 1.647 4.146-4.147a.5.5 0 01.708.708l-4.5 4.5a.5.5 0 01-.708 0l-2-2a.5.5 0 010-.708z" clip-rule="evenodd" fill="currentColor" fill-rule="evenodd"/>
</svg>
