<?xml version="1.0" encoding="UTF-8" standalone="no"?> <svg width="64" height="64" viewBox="0 0 64 64" fill="none" xmlns="http://www.w3.org/2000/svg">
<path d="M4.82997 53.1401L15.05 52.8701C15.5607 52.8576 16.0474 52.6501 16.41 52.2901L49.87 18.8801C51.5615 17.1837 52.5113 14.8858 52.5113 12.4901C52.5113 10.0945 51.5615 7.79656 49.87 6.10012V6.10012C48.1735 4.40861 45.8756 3.45874 43.48 3.45874C41.0843 3.45874 38.7864 4.40861 37.09 6.10012L3.67997 39.5101C3.32002 39.8727 3.11249 40.3593 3.09997 40.8701L2.82997 51.0901C2.8233 51.3569 2.8701 51.6224 2.96762 51.8709C3.06513 52.1193 3.2114 52.3457 3.39778 52.5368C3.58417 52.7278 3.80691 52.8796 4.05288 52.9832C4.29885 53.0869 4.56307 53.1402 4.82997 53.1401V53.1401ZM39.92 8.93012C40.3875 8.46524 40.942 8.097 41.5518 7.84641C42.1616 7.59582 42.8148 7.46781 43.4741 7.46966C44.1334 7.47152 44.7859 7.60322 45.3943 7.85723C46.0027 8.11125 46.5551 8.48262 47.02 8.95012C47.4848 9.41763 47.8531 9.97212 48.1037 10.5819C48.3543 11.1918 48.4823 11.845 48.4804 12.5043C48.4786 13.1636 48.3469 13.816 48.0929 14.4244C47.8388 15.0328 47.4675 15.5852 47 16.0501L44 19.1201L36.85 12.0001L39.92 8.93012ZM7.06997 41.7801L34 14.8301L41.14 22.0001L14.2 48.9001L6.88997 49.0801L7.06997 41.7801Z" fill="black"/>
<path d="M60 56.54H4C3.46957 56.54 2.96086 56.7508 2.58579 57.1258C2.21071 57.5009 2 58.0096 2 58.54C2 59.0705 2.21071 59.5792 2.58579 59.9543C2.96086 60.3293 3.46957 60.54 4 60.54H60C60.5304 60.54 61.0391 60.3293 61.4142 59.9543C61.7893 59.5792 62 59.0705 62 58.54C62 58.0096 61.7893 57.5009 61.4142 57.1258C61.0391 56.7508 60.5304 56.54 60 56.54Z" fill="black"/>
</svg>
